<svg xmlns="http://www.w3.org/2000/svg" xml:space="preserve" width="2000" height="1500" data-id="lg_51acDNdZS85e918iKp" data-version="1" viewBox="0 0 2000 1500"><path fill="#0a1627" stroke="transparent" d="M0 0h2000v1500H0z"/><g data-padding="20"><g transform="translate(-1680.505 -1260.452)scale(2.60983)"><rect width="389.265" height="84.75" x="433.577" y="327.21" fill="none" rx="0" ry="0" transform="translate(400.36 565.57)"/><path fill="#a010ff" d="M851.51 959.435q-3.92 0-6.38-1.41-2.45-1.41-3.77-4.01t-1.81-6.14q-.49-3.53-.49-7.81v-6.27h7.36v6.56q0 6.77.97 9.68.97 2.92 4.19 2.92 2.23 0 3.28-1.05 1.04-1.04 1.33-3.35.3-2.31.3-6.08 0-4.32-1.52-7.43t-4.38-5.97l-4.21-4.21q-1.83-1.87-3.59-4.09-1.76-2.21-2.91-5.03t-1.15-6.45q0-4.87 1.02-8.42 1.03-3.55 3.74-5.49t7.69-1.94q3.92 0 6.28 1.35 2.36 1.36 3.55 3.87 1.19 2.5 1.57 5.95.39 3.44.39 7.61v3.81h-7.25v-4.32q0-3.92-.31-6.54-.31-2.61-1.27-3.93-.95-1.32-2.96-1.32-1.83 0-2.99.9-1.15.89-1.66 2.76-.52 1.87-.52 4.8 0 2.56.63 4.23.62 1.66 1.88 3.09 1.27 1.43 3.1 3.37l4.39 4.65q3.48 3.63 5.7 8.11 2.21 4.49 2.21 10.42 0 5.35-1.04 9.19-1.05 3.85-3.72 5.92t-7.65 2.07m27.5-.72h-7.58v-64.46h7.58v27.58h10.33v-27.58h7.58v64.46h-7.58v-30.69h-10.33Zm47.86 0h-19.41v-64.46h19.27v6.3h-11.69v22.05h11.06v6.3h-11.06v23.51h11.83Zm15.81 0h-7.58v-64.46h12.97q3.84 0 6.24 1.28 2.4 1.29 3.68 3.7 1.28 2.42 1.74 5.83.46 3.4.46 7.65v.99q0 6.48-1.01 10.87-1.01 4.4-3.62 6.61-2.62 2.22-7.49 2.22h-5.39Zm0-58.45v26.84h4.62q2.23 0 3.37-1.26 1.13-1.27 1.55-4.2.42-2.92.42-7.94v-1.25q0-6.22-.95-9.21-.95-2.98-4.21-2.98Zm26.74 58.45h-7.22l9.78-64.46h9.12l10.66 64.46h-7.15l-1.83-12.31H971.1Zm7.21-52.52-4.69 34.06h9.89l-5.09-34.06Zm29.81 52.52h-7.58v-64.46h13.51q5.13 0 7.58 1.82 2.46 1.81 3.21 5.45.75 3.65.75 9.18 0 5.96-1.21 9.48t-4.69 4.54q1.76.29 2.91 1.5 1.16 1.21 1.82 3.77.66 2.57.93 6.87.28 4.3.28 10.82v1.8q0 1.17.03 2.56.04 1.39.09 2.75.06 1.35.17 2.4.11 1.04.29 1.52h-7.54q-.15-.33-.26-1.47-.11-1.13-.18-3-.08-1.87-.11-4.45-.04-2.58-.04-5.79v-7.01q0-3.66-.31-5.59-.31-1.92-1.47-2.67-1.15-.75-3.68-.9l-4.5-.25Zm0-58.45v21.75h4.83q2.09 0 3.21-.82 1.12-.83 1.52-3.3t.4-7.41v-.44q0-4.11-.38-6.21-.39-2.11-1.49-2.84t-3.33-.73Zm38.67 58.45h-11.86v-64.46h12.12q5.05 0 7.87 2.11 2.82 2.1 3.96 6.02 1.13 3.92 1.13 9.38l.04 28.31q0 6.51-1.3 10.63t-4.21 6.06q-2.91 1.95-7.75 1.95m-4.32-58.45v52.33h3.88q2.05 0 3.41-.9 1.35-.89 2.03-3.35.68-2.45.68-7.1v-29.67q0-6.07-1.43-8.69t-4.69-2.62Zm57.42 59.21q-4.68 0-7.47-2.28-2.78-2.29-3.99-6.72-1.21-4.44-1.21-10.77v-26.84q0-4.25.55-7.79.55-3.53 1.96-6.11t3.94-3.99q2.52-1.41 6.48-1.41 3.77 0 6.15 1.33 2.38 1.34 3.7 3.81t1.81 5.86q.5 3.39.5 7.49v7.14h-7.44v-7.18q0-6-.86-8.99-.86-2.98-3.86-2.98-3.19 0-4.27 3.06-1.08 3.05-1.08 8.88v27.9q0 4.69.41 7.6.4 2.91 1.51 4.23 1.12 1.32 3.21 1.32 3.04 0 3.99-3.08.95-3.07.95-10.1v-7.15h7.51v7.07q0 6.45-1.12 10.84-1.11 4.4-3.82 6.63t-7.55 2.23m35.75-.76h-7.58v-27.07l-11.2-37.39h7.51l7.47 26.19h.14l6.48-26.19h7.59l-10.41 37.39Zm23.8 0h-7.58v-64.46h7.58Zm28.65 0h-20.84v-6.56l13.29-51.6h-12.08v-6.3h19.92v5.79l-13.29 52.37h13Zm10.95 0h-7.22l9.78-64.46h9.12l10.65 64.46h-7.14l-1.83-12.31h-11.68Zm7.21-52.52-4.69 34.06h9.89l-5.09-34.06Z"/><path fill="#001f3f" stroke="#a010ff" stroke-width="3.54" d="M1304.178 643.645v137.033a7.434 7.434 0 0 1-7.458 7.458h-137.27a7.43 7.43 0 0 0-6.277 3.445c-26.385 41.82-73.006 69.597-126.095 69.597s-99.71-27.778-126.094-69.597a7.43 7.43 0 0 0-6.278-3.445h-137.27a7.434 7.434 0 0 1-7.457-7.458V643.645a7.434 7.434 0 0 1 7.458-7.458h137.257a7.42 7.42 0 0 0 6.278-3.446c26.385-41.82 73.006-69.596 126.106-69.596s99.722 27.777 126.107 69.596a7.43 7.43 0 0 0 6.278 3.446h137.256a7.434 7.434 0 0 1 7.458 7.458"/><path fill="none" stroke="#a010ff" stroke-width="3.3" d="M1028.89 584.12a130.335 130.335 0 1 0 0 260.67 130.335 130.335 0 1 0 0-260.67Z"/><rect width="177.45" height="134.47" x="539.484" y="302.35" fill="none" rx="0" ry="0" transform="translate(399.19 355.18)"/><path fill="#a010ff" d="m1001.16 710.745 25.34 23.56-25.11 27.85h-46.64v2.62h-4.76v-29.87l16.66 21.3h33.32v-39.51h-31.9l-25.46-25.23 24.04-21.42h41.41v-3.09h4.76v30.22l-16.66-21.18h-27.13v34.75Zm110.91-13.57-16.66-21.18h-33.91v80.21h50.57v5.95h-52.12l-26.3-48.67 26.3-43.44h47.24v-3.09h4.76Zm138.497-5.195-1.12-.896c-1.344-1.12-3.472-.672-4.256.896-.336.784-.672 8.624-.672 9.968v.784c0 1.12-1.008 2.016-2.128 1.792-.896-.112-1.568-1.008-1.568-1.904-.112-13.44-4.144-22.848-11.76-29.904-4.592-4.256-10.08-8.064-11.76-5.152-.448.784.224 2.464 1.008 4.592 1.568 4.816-3.248 12.544-10.08 20.272-6.384 7.28-14.336 16.24-14.336 29.568 0 17.92 16.912 34.16 35.504 34.16s35.504-16.24 35.504-34.16c0-11.312-5.376-22.512-14.336-30.016m-21.168 57.68c-8.064 0-14.672-6.608-14.672-14.672 0-4.032 1.568-7.616 4.256-10.304l8.064-9.632c1.232-1.456 3.584-1.456 4.816 0l8.064 9.632c2.576 2.688 4.256 6.272 4.256 10.304-.112 8.064-6.72 14.672-14.784 14.672m-383.655-60.077-1.25-1c-1.5-1.25-3.875-.75-4.75 1-.375.875-.75 9.625-.75 11.125v.875c0 1.25-1.125 2.25-2.375 2-1-.125-1.75-1.125-1.75-2.125-.125-15-4.625-25.5-13.125-33.375-5.125-4.75-11.25-9-13.125-5.75-.5.875.25 2.75 1.125 5.125 1.75 5.375-3.625 14-11.25 22.625-7.125 8.125-16 18.125-16 33 0 20 18.875 38.125 39.625 38.125s39.625-18.125 39.625-38.125c0-12.625-6-25.125-16-33.5m-23.625 64.375c-9 0-16.375-7.375-16.375-16.375 0-4.5 1.75-8.5 4.75-11.5l9-10.75c1.375-1.625 4-1.625 5.375 0l9 10.75c2.875 3 4.75 7 4.75 11.5-.125 9-7.5 16.375-16.5 16.375"/><rect width="26.922" height="22.6" x="505.72" y="294.142" fill="none" rx="0" ry="0" transform="translate(239.68 447.78)scale(1.21)"/><path fill="#a010ff" d="m858.633 814.788-5.348 8.663h7.09l4.042-3.34v4.55h-11.665v-11.083h7.43v-6.438h-3.51l-3.92 3.22v-4.43h13.068l-5.638 8.858Zm10.091 9.873v-18.73h12.15v18.73Zm.121-10.26 5.93 9.752 5.977-9.777-5.953-8.01Z"/><rect width="25.742" height="20.34" x="506.31" y="295.272" fill="none" rx="0" ry="0" transform="translate(561.99 445.19)scale(1.21)"/><path fill="#a010ff" d="m1180.92 812.44-4.806 7.792h6.377l3.642-3v4.09h-10.503v-9.97h6.692v-5.797h-3.158l-3.534 2.904v-3.993h11.762l-5.07 7.974Zm21.766 3.278v2.178h-.87v-.544h-1.223v2.868h1.657v1.089h-3.86v-1.09h1.586l-.775-2.867h-9.196l4.683-14.072v12.983h4.223l-3.183-11.81h4.865v11.81h1.222v-.545Z"/></g><path fill="transparent" stroke="transparent" stroke-width="2.708" d="M250 189.53h1500v1120.94H250z"/></g></svg>